<mxfile host="app.diagrams.net" modified="2022-06-16T22:05:06.140Z" agent="5.0 (Windows NT 10.0; Win64; x64) AppleWebKit/537.36 (KHTML, like Gecko) Chrome/102.0.0.0 Safari/537.36" etag="V3UXD8Q66_4xwkVwmceo" version="20.0.1" type="github">
  <diagram name="Page-1" id="2ca16b54-16f6-2749-3443-fa8db7711227">
    <mxGraphModel dx="1422" dy="762" grid="1" gridSize="10" guides="1" tooltips="1" connect="1" arrows="1" fold="1" page="1" pageScale="1" pageWidth="1100" pageHeight="850" background="none" math="0" shadow="0">
      <root>
        <mxCell id="0" />
        <mxCell id="1" parent="0" />
        <mxCell id="QQ8vYpimWWK3-_Ax6pd0-10" style="edgeStyle=orthogonalEdgeStyle;rounded=0;orthogonalLoop=1;jettySize=auto;html=1;exitX=0;exitY=0.5;exitDx=0;exitDy=0;entryX=1;entryY=0.5;entryDx=0;entryDy=0;endArrow=none;endFill=0;" edge="1" parent="1" source="QQ8vYpimWWK3-_Ax6pd0-1" target="QQ8vYpimWWK3-_Ax6pd0-3">
          <mxGeometry relative="1" as="geometry" />
        </mxCell>
        <mxCell id="QQ8vYpimWWK3-_Ax6pd0-13" style="edgeStyle=orthogonalEdgeStyle;rounded=0;orthogonalLoop=1;jettySize=auto;html=1;exitX=0.5;exitY=0;exitDx=0;exitDy=0;entryX=0.5;entryY=1;entryDx=0;entryDy=0;endArrow=none;endFill=0;" edge="1" parent="1" source="QQ8vYpimWWK3-_Ax6pd0-1" target="QQ8vYpimWWK3-_Ax6pd0-2">
          <mxGeometry relative="1" as="geometry" />
        </mxCell>
        <mxCell id="QQ8vYpimWWK3-_Ax6pd0-18" style="edgeStyle=orthogonalEdgeStyle;rounded=0;orthogonalLoop=1;jettySize=auto;html=1;exitX=1;exitY=0.5;exitDx=0;exitDy=0;entryX=0;entryY=0.5;entryDx=0;entryDy=0;endArrow=none;endFill=0;" edge="1" parent="1" source="QQ8vYpimWWK3-_Ax6pd0-1" target="QQ8vYpimWWK3-_Ax6pd0-4">
          <mxGeometry relative="1" as="geometry" />
        </mxCell>
        <mxCell id="QQ8vYpimWWK3-_Ax6pd0-1" value="Üniversite&#xa;" style="swimlane;verticalAlign=top;" vertex="1" parent="1">
          <mxGeometry x="430" y="280" width="200" height="80" as="geometry" />
        </mxCell>
        <mxCell id="QQ8vYpimWWK3-_Ax6pd0-2" value="Sınıf" style="swimlane;verticalAlign=top;" vertex="1" parent="1">
          <mxGeometry x="430" y="40" width="200" height="80" as="geometry" />
        </mxCell>
        <mxCell id="QQ8vYpimWWK3-_Ax6pd0-3" value="Çalışma Ofisi" style="swimlane;verticalAlign=top;" vertex="1" parent="1">
          <mxGeometry x="50" y="280" width="200" height="80" as="geometry" />
        </mxCell>
        <mxCell id="QQ8vYpimWWK3-_Ax6pd0-21" style="edgeStyle=orthogonalEdgeStyle;rounded=0;orthogonalLoop=1;jettySize=auto;html=1;exitX=0.5;exitY=1;exitDx=0;exitDy=0;entryX=0.5;entryY=0;entryDx=0;entryDy=0;endArrow=none;endFill=0;" edge="1" parent="1" source="QQ8vYpimWWK3-_Ax6pd0-4" target="QQ8vYpimWWK3-_Ax6pd0-5">
          <mxGeometry relative="1" as="geometry" />
        </mxCell>
        <mxCell id="QQ8vYpimWWK3-_Ax6pd0-4" value="Departman" style="swimlane;verticalAlign=top;" vertex="1" parent="1">
          <mxGeometry x="720" y="280" width="200" height="80" as="geometry" />
        </mxCell>
        <mxCell id="QQ8vYpimWWK3-_Ax6pd0-5" value="Ofis" style="swimlane;verticalAlign=top;" vertex="1" parent="1">
          <mxGeometry x="720" y="440" width="200" height="80" as="geometry" />
        </mxCell>
        <mxCell id="QQ8vYpimWWK3-_Ax6pd0-27" style="edgeStyle=orthogonalEdgeStyle;rounded=0;orthogonalLoop=1;jettySize=auto;html=1;exitX=1;exitY=0.5;exitDx=0;exitDy=0;entryX=0.5;entryY=1;entryDx=0;entryDy=0;endArrow=none;endFill=0;" edge="1" parent="1" source="QQ8vYpimWWK3-_Ax6pd0-6" target="QQ8vYpimWWK3-_Ax6pd0-5">
          <mxGeometry relative="1" as="geometry" />
        </mxCell>
        <mxCell id="QQ8vYpimWWK3-_Ax6pd0-6" value="Çalışanlar" style="swimlane;verticalAlign=top;" vertex="1" parent="1">
          <mxGeometry x="430" y="490" width="200" height="80" as="geometry" />
        </mxCell>
        <mxCell id="QQ8vYpimWWK3-_Ax6pd0-26" style="edgeStyle=orthogonalEdgeStyle;rounded=0;orthogonalLoop=1;jettySize=auto;html=1;exitX=0.5;exitY=0;exitDx=0;exitDy=0;endArrow=diamond;endFill=0;" edge="1" parent="1" source="QQ8vYpimWWK3-_Ax6pd0-7">
          <mxGeometry relative="1" as="geometry">
            <mxPoint x="530" y="570" as="targetPoint" />
          </mxGeometry>
        </mxCell>
        <mxCell id="QQ8vYpimWWK3-_Ax6pd0-7" value="Memur" style="swimlane;verticalAlign=top;" vertex="1" parent="1">
          <mxGeometry x="630" y="620" width="200" height="80" as="geometry" />
        </mxCell>
        <mxCell id="QQ8vYpimWWK3-_Ax6pd0-25" style="edgeStyle=orthogonalEdgeStyle;rounded=0;orthogonalLoop=1;jettySize=auto;html=1;exitX=0.5;exitY=0;exitDx=0;exitDy=0;endArrow=diamond;endFill=0;entryX=0.5;entryY=1;entryDx=0;entryDy=0;" edge="1" parent="1" source="QQ8vYpimWWK3-_Ax6pd0-8" target="QQ8vYpimWWK3-_Ax6pd0-6">
          <mxGeometry relative="1" as="geometry">
            <mxPoint x="520" y="570" as="targetPoint" />
          </mxGeometry>
        </mxCell>
        <mxCell id="QQ8vYpimWWK3-_Ax6pd0-8" value="Profesör" style="swimlane;verticalAlign=top;" vertex="1" parent="1">
          <mxGeometry x="230" y="620" width="200" height="80" as="geometry" />
        </mxCell>
        <mxCell id="QQ8vYpimWWK3-_Ax6pd0-11" value="1-*" style="text;html=1;align=center;verticalAlign=middle;resizable=0;points=[];autosize=1;strokeColor=none;fillColor=none;" vertex="1" parent="1">
          <mxGeometry x="255" y="300" width="30" height="20" as="geometry" />
        </mxCell>
        <mxCell id="QQ8vYpimWWK3-_Ax6pd0-12" value="1" style="text;html=1;align=center;verticalAlign=middle;resizable=0;points=[];autosize=1;strokeColor=none;fillColor=none;" vertex="1" parent="1">
          <mxGeometry x="410" y="300" width="20" height="20" as="geometry" />
        </mxCell>
        <mxCell id="QQ8vYpimWWK3-_Ax6pd0-14" value="1" style="text;html=1;align=center;verticalAlign=middle;resizable=0;points=[];autosize=1;strokeColor=none;fillColor=none;" vertex="1" parent="1">
          <mxGeometry x="500" y="260" width="20" height="20" as="geometry" />
        </mxCell>
        <mxCell id="QQ8vYpimWWK3-_Ax6pd0-17" value="*&lt;br&gt;" style="text;html=1;align=center;verticalAlign=middle;resizable=0;points=[];autosize=1;strokeColor=none;fillColor=none;" vertex="1" parent="1">
          <mxGeometry x="500" y="120" width="20" height="20" as="geometry" />
        </mxCell>
        <mxCell id="QQ8vYpimWWK3-_Ax6pd0-19" value="1" style="text;html=1;align=center;verticalAlign=middle;resizable=0;points=[];autosize=1;strokeColor=none;fillColor=none;" vertex="1" parent="1">
          <mxGeometry x="630" y="300" width="20" height="20" as="geometry" />
        </mxCell>
        <mxCell id="QQ8vYpimWWK3-_Ax6pd0-20" value="1-*" style="text;html=1;align=center;verticalAlign=middle;resizable=0;points=[];autosize=1;strokeColor=none;fillColor=none;" vertex="1" parent="1">
          <mxGeometry x="690" y="300" width="30" height="20" as="geometry" />
        </mxCell>
        <mxCell id="QQ8vYpimWWK3-_Ax6pd0-22" value="1" style="text;html=1;align=center;verticalAlign=middle;resizable=0;points=[];autosize=1;strokeColor=none;fillColor=none;" vertex="1" parent="1">
          <mxGeometry x="820" y="360" width="20" height="20" as="geometry" />
        </mxCell>
        <mxCell id="QQ8vYpimWWK3-_Ax6pd0-24" value="&lt;span style=&quot;color: rgb(0, 0, 0); font-family: Helvetica; font-size: 12px; font-style: normal; font-variant-ligatures: normal; font-variant-caps: normal; font-weight: 400; letter-spacing: normal; orphans: 2; text-align: center; text-indent: 0px; text-transform: none; widows: 2; word-spacing: 0px; -webkit-text-stroke-width: 0px; background-color: rgb(248, 249, 250); text-decoration-thickness: initial; text-decoration-style: initial; text-decoration-color: initial; float: none; display: inline !important;&quot;&gt;1-*&lt;/span&gt;" style="text;whiteSpace=wrap;html=1;" vertex="1" parent="1">
          <mxGeometry x="820" y="415" width="40" height="20" as="geometry" />
        </mxCell>
        <mxCell id="QQ8vYpimWWK3-_Ax6pd0-28" value="1" style="text;html=1;align=center;verticalAlign=middle;resizable=0;points=[];autosize=1;strokeColor=none;fillColor=none;" vertex="1" parent="1">
          <mxGeometry x="630" y="510" width="20" height="20" as="geometry" />
        </mxCell>
        <mxCell id="QQ8vYpimWWK3-_Ax6pd0-29" value="1" style="text;html=1;align=center;verticalAlign=middle;resizable=0;points=[];autosize=1;strokeColor=none;fillColor=none;" vertex="1" parent="1">
          <mxGeometry x="820" y="520" width="20" height="20" as="geometry" />
        </mxCell>
      </root>
    </mxGraphModel>
  </diagram>
</mxfile>
